<?xml version="1.0" encoding="utf-8"?>
<!-- Generator: Adobe Illustrator 24.0.3, SVG Export Plug-In . SVG Version: 6.00 Build 0)  -->
<svg version="1.1" id="Layer_1" xmlns="http://www.w3.org/2000/svg" xmlns:xlink="http://www.w3.org/1999/xlink" x="0px" y="0px"
	 width="100" height="100" viewBox="0 0 640 480" style="enable-background:new 0 0 640 480;" xml:space="preserve">
<style type="text/css">
	.st0{fill:none;stroke:#333333;stroke-width:2;stroke-linecap:round;stroke-linejoin:round;}
	.st1{fill:#333333;}
	.st2{fill:none;stroke:#333333;stroke-width:0.8;stroke-miterlimit:10;}
	.st3{fill:#F7F7F7;}
	.st4{fill:#DEDEDE;}
	.st5{fill:#B6B6B6;}
	.st6{fill:#7D7D7D;}
	.st7{fill:#440099;}
	.st8{fill:none;stroke:#333333;stroke-width:1.6599;stroke-linecap:round;stroke-linejoin:round;stroke-miterlimit:10;}
	.st9{fill:#FFFFFF;stroke:#440099;stroke-width:0.8;stroke-miterlimit:10;}
	.st10{opacity:0.25;fill:none;stroke:#440099;stroke-linecap:round;stroke-linejoin:round;stroke-miterlimit:10;}
	.st11{opacity:0.5;fill:none;stroke:#440099;stroke-linecap:round;stroke-linejoin:round;stroke-miterlimit:10;}
	.st12{opacity:0.75;fill:none;stroke:#440099;stroke-linecap:round;stroke-linejoin:round;stroke-miterlimit:10;}
	.st13{fill:none;stroke:#440099;stroke-linecap:round;stroke-linejoin:round;stroke-miterlimit:10;}
	.st14{fill:#FFFFFF;}
	.st15{fill:none;stroke:#333333;stroke-width:1.8674;stroke-linecap:round;stroke-linejoin:round;stroke-miterlimit:10;}
	.st16{fill:#FFFFFF;stroke:#333333;stroke-width:1.6216;stroke-miterlimit:10;}
	.st17{fill:none;stroke:#333333;stroke-width:1.6485;stroke-linecap:round;stroke-linejoin:round;stroke-miterlimit:10;}
	.st18{fill:none;stroke:#333333;stroke-width:0.9635;stroke-linecap:round;stroke-linejoin:round;stroke-miterlimit:10;}
	.st19{fill:#FFFFFF;stroke:#333333;stroke-width:1.6485;stroke-linecap:round;stroke-linejoin:round;stroke-miterlimit:10;}
	.st20{fill:#041219;}
	.st21{fill:url(#SVGID_3_);}
	.st22{fill:url(#SVGID_4_);}
	.st23{fill:none;stroke:#FFFFFF;stroke-width:0.7547;stroke-linecap:round;stroke-linejoin:round;stroke-miterlimit:10;}
	.st24{fill:none;}
	.st25{fill:none;stroke:#CCCCCC;stroke-width:0.6456;stroke-linecap:round;stroke-linejoin:round;stroke-miterlimit:10;}
	.st26{fill:#24202B;}
	.st27{fill:none;stroke:#FFFFFF;stroke-width:0.8889;stroke-linecap:round;stroke-linejoin:round;stroke-miterlimit:10;}
	.st28{fill:none;stroke:#E8E8E8;stroke-width:0.8889;stroke-linecap:round;stroke-linejoin:round;stroke-miterlimit:10;}
	.st29{fill:#FFFFFF;stroke:#FFFFFF;stroke-width:0.25;stroke-miterlimit:10;}
	.st30{fill:#00A6C0;}
	.st31{fill:#FFFFFF;stroke:#000000;stroke-width:1.5027;stroke-miterlimit:10;}
	.st32{fill:#FFFFFF;stroke:#000000;stroke-width:1.1029;stroke-miterlimit:10;}
	.st33{fill:#FFFFFF;stroke:#000000;stroke-width:1.2058;stroke-miterlimit:10;}
	.st34{fill:none;stroke:#FFFFFF;stroke-width:1.7778;stroke-linecap:round;stroke-linejoin:round;stroke-miterlimit:10;}
	.st35{fill:none;stroke:#FFFFFF;stroke-width:1.4035;stroke-miterlimit:10;}
	.st36{fill:none;stroke:#FFFFFF;stroke-width:0.5;stroke-miterlimit:10;}
	.st37{fill:none;stroke:#FFFFFF;stroke-miterlimit:10;}
	.st38{fill:url(#SVGID_5_);stroke:#FFFFFF;stroke-miterlimit:10;}
	.st39{fill:url(#SVGID_6_);stroke:#FFFFFF;stroke-miterlimit:10;}
	.st40{fill:url(#SVGID_7_);stroke:#FFFFFF;stroke-miterlimit:10;}
	.st41{fill:url(#SVGID_8_);stroke:#FFFFFF;stroke-miterlimit:10;}
	.st42{fill:url(#SVGID_9_);stroke:#FFFFFF;stroke-miterlimit:10;}
	.st43{fill:url(#SVGID_10_);stroke:#FFFFFF;stroke-miterlimit:10;}
	.st44{fill:url(#SVGID_11_);stroke:#FFFFFF;stroke-miterlimit:10;}
	.st45{fill:#FFFFFF;stroke:#000000;stroke-width:3.0053;stroke-miterlimit:10;}
	.st46{fill:#FFFFFF;stroke:#000000;stroke-width:2.2058;stroke-miterlimit:10;}
	.st47{fill:#FFFFFF;stroke:#000000;stroke-width:2.4115;stroke-miterlimit:10;}
	.st48{filter:url(#Adobe_OpacityMaskFilter);}
	.st49{fill:url(#SVGID_15_);}
	.st50{mask:url(#SVGID_14_);}
	.st51{fill:#CCCCCC;}
	.st52{fill:#F8F8F8;}
	.st53{fill:none;stroke:#333333;stroke-width:1.6216;stroke-miterlimit:10;}
	.st54{fill:none;stroke:#333333;stroke-width:1.6187;stroke-linecap:round;stroke-linejoin:round;stroke-miterlimit:10;}
	.st55{opacity:0.84;fill:#333333;}
	.st56{fill:none;stroke:#FFFFFF;stroke-width:2.0001;stroke-miterlimit:10;}
	.st57{fill:none;stroke:#FFFFFF;stroke-width:1.6801;stroke-linecap:round;stroke-linejoin:round;stroke-miterlimit:10;}
	.st58{opacity:0.72;fill:#FFFFFF;}
	.st59{fill:none;stroke:#333333;stroke-linecap:round;stroke-linejoin:round;stroke-miterlimit:10;}
	.st60{fill:none;stroke:#FFFFFF;stroke-width:1.1429;stroke-linecap:round;stroke-linejoin:round;stroke-miterlimit:10;}
	.st61{fill:none;stroke:#E8E8E8;stroke-width:1.5;stroke-linecap:round;stroke-linejoin:round;stroke-miterlimit:10;}
	.st62{fill:#1A1A1A;}
	.st63{fill:#00A5BF;}
	.st64{opacity:0.24;fill:none;stroke:url(#SVGID_24_);stroke-miterlimit:10;}
	.st65{fill:none;stroke:#FFFFFF;stroke-width:1.4;stroke-linecap:round;stroke-linejoin:round;stroke-miterlimit:10;}
	.st66{fill:none;stroke:#FFFFFF;stroke-width:1.6931;stroke-linecap:round;stroke-linejoin:round;stroke-miterlimit:10;}
	.st67{fill:none;stroke:#FFFFFF;stroke-width:1.3367;stroke-miterlimit:10;}
	.st68{fill:none;stroke:#FFFFFF;stroke-width:0.4762;stroke-miterlimit:10;}
	.st69{fill:none;stroke:#FFFFFF;stroke-width:0.9524;stroke-miterlimit:10;}
	.st70{fill:url(#SVGID_25_);stroke:#FFFFFF;stroke-width:0.9524;stroke-miterlimit:10;}
	.st71{fill:url(#SVGID_26_);stroke:#FFFFFF;stroke-width:0.9524;stroke-miterlimit:10;}
	.st72{fill:url(#SVGID_27_);stroke:#FFFFFF;stroke-width:0.9524;stroke-miterlimit:10;}
	.st73{fill:url(#SVGID_28_);stroke:#FFFFFF;stroke-width:0.9524;stroke-miterlimit:10;}
	.st74{fill:url(#SVGID_29_);stroke:#FFFFFF;stroke-width:0.9524;stroke-miterlimit:10;}
	.st75{fill:url(#SVGID_30_);stroke:#FFFFFF;stroke-width:0.9524;stroke-miterlimit:10;}
	.st76{fill:url(#SVGID_31_);stroke:#FFFFFF;stroke-width:0.9524;stroke-miterlimit:10;}
	.st77{fill:url(#SVGID_34_);}
	.st78{fill:url(#SVGID_35_);}
</style>
<g>
	<g>
		<g>
			<polygon points="319.5,239.932 318.804,179.75 321.442,179.755 320.5,239.934 			"/>
			<g>
				<polygon points="324.474,182.734 320.15,166.464 315.759,182.716 				"/>
			</g>
		</g>
	</g>
	<g>
		<g>
			<path d="M319.545,240.14c-8.556-18.16-18.513-35.635-29.754-52.215l2.204-1.451c10.861,16.995,20.381,34.82,28.461,53.253
				L319.545,240.14z"/>
			<g>
				<polygon points="296.13,187.243 283.395,176.232 288.917,192.136 				"/>
			</g>
		</g>
	</g>
	<g>
		<g>
			<path d="M319.647,240.287c-7.303-7.071-15.224-13.497-23.728-19.007c-8.5-5.504-17.59-10.102-27.121-13.365l0.884-2.49
				c9.678,3.607,18.79,8.536,27.247,14.34c8.461,5.811,16.271,12.507,23.424,19.815L319.647,240.287z"/>
			<g>
				<polygon points="273.279,203.456 256.448,203.069 270.83,211.821 				"/>
			</g>
		</g>
	</g>
	<g>
		<g>
			<path d="M319.815,240.398c-9.594-3.672-19.739-5.836-29.953-6.4c-10.214-0.569-20.494,0.461-30.35,3.036l-0.633-2.57
				c10.189-2.374,20.726-3.141,31.109-2.285c10.384,0.85,20.61,3.325,30.198,7.29L319.815,240.398z"/>
			<g>
				<polygon points="260.769,230.801 246.531,239.783 263.353,239.125 				"/>
			</g>
		</g>
	</g>
	<g>
		<g>
			<path d="M320.098,240.423c-9.916,2.16-19.417,5.962-28.303,10.8c-8.893,4.848-17.184,10.747-24.841,17.35l-1.703-2.021
				c7.964-6.504,16.544-12.266,25.694-16.94c9.143-4.665,18.871-8.256,28.956-10.17L320.098,240.423z"/>
			<g>
				<polygon points="265.488,262.432 256.299,276.538 271.31,268.917 				"/>
			</g>
		</g>
	</g>
	<g>
		<g>
			<path d="M320.406,240.225c-11.478,16.468-21.624,33.834-30.351,51.863l-2.36-1.181c9.277-17.909,19.945-35.073,31.898-51.265
				L320.406,240.225z"/>
			<g>
				<polygon points="286.294,286.948 283.136,303.485 294.14,290.744 				"/>
			</g>
		</g>
	</g>
	<g>
		<g>
			<polygon points="320.5,239.934 321.196,300.116 318.558,300.111 319.5,239.932 			"/>
			<g>
				<polygon points="315.526,297.132 319.85,313.403 324.241,297.15 				"/>
			</g>
		</g>
	</g>
	<g>
		<g>
			<path d="M320.408,239.644c11.86,16.259,22.459,33.462,31.676,51.4l-2.364,1.173c-8.667-18.058-18.744-35.462-30.128-51.994
				L320.408,239.644z"/>
			<g>
				<polygon points="345.57,290.921 356.605,303.634 353.406,287.106 				"/>
			</g>
		</g>
	</g>
	<g>
		<g>
			<path d="M320.101,239.443c10.073,1.968,19.781,5.606,28.902,10.309c9.128,4.712,17.685,10.505,25.626,17.033l-1.709,2.016
				c-7.635-6.627-15.903-12.556-24.773-17.441c-8.864-4.876-18.345-8.723-28.248-10.937L320.101,239.443z"/>
			<g>
				<polygon points="368.564,269.131 383.552,276.797 374.406,262.663 				"/>
			</g>
		</g>
	</g>
	<g>
		<g>
			<path d="M319.817,239.468c9.603-3.93,19.84-6.362,30.227-7.169c10.387-0.812,20.92,0.002,31.099,2.416l-0.644,2.567
				c-9.846-2.613-20.121-3.69-30.338-3.164c-10.216,0.52-20.371,2.643-29.978,6.28L319.817,239.468z"/>
			<g>
				<polygon points="376.65,239.359 393.469,240.083 379.266,231.045 				"/>
			</g>
		</g>
	</g>
	<g>
		<g>
			<path d="M319.648,239.578c7.174-7.288,15.009-13.96,23.493-19.74c8.481-5.773,17.616-10.663,27.314-14.223l0.872,2.495
				c-9.548,3.216-18.66,7.775-27.181,13.248c-8.526,5.478-16.47,11.879-23.794,18.931L319.648,239.578z"/>
			<g>
				<polygon points="369.275,212.006 383.701,203.328 366.869,203.629 				"/>
			</g>
		</g>
	</g>
	<g>
		<g>
			<path d="M319.648,239.578c7.174-7.288,15.009-13.96,23.493-19.74c8.481-5.773,17.616-10.663,27.314-14.223l0.872,2.495
				c-9.548,3.216-18.66,7.775-27.181,13.248c-8.526,5.478-16.47,11.879-23.794,18.931L319.648,239.578z"/>
			<g>
				<polygon points="369.275,212.006 383.701,203.328 366.869,203.629 				"/>
			</g>
		</g>
	</g>
	<g>
		<g>
			<path d="M319.545,239.725c8.134-18.41,17.719-36.204,28.665-53.147l2.197,1.462c-11.323,16.524-21.343,33.966-29.952,52.101
				L319.545,239.725z"/>
			<g>
				<polygon points="351.259,192.256 356.864,176.382 344.072,187.326 				"/>
			</g>
		</g>
	</g>
	<g>
		<circle class="st45" cx="320" cy="239.933" r="24"/>
		<circle class="st7" cx="320" cy="234.533" r="6.4"/>
		<path class="st7" d="M325.286,240.787c-0.241-0.106-0.519-0.072-0.743,0.066c-1.328,0.811-2.873,1.281-4.542,1.281
			c-1.666,0-3.212-0.47-4.539-1.278c-0.225-0.137-0.502-0.171-0.743-0.065c-2.609,1.143-4.318,3.106-4.318,5.344v3.2
			c0,1.325,4.298,2.4,9.6,2.4s9.6-1.075,9.6-2.4v-3.2C329.6,243.895,327.894,241.93,325.286,240.787z"/>
	</g>
	<g>
		<g>
			<g>
				<path d="M244.624,283.173c-7.837-2.954-16.457-3.637-24.573-1.988l-0.295-1.627c8.48-1.38,17.286-0.309,25.114,2.996
					L244.624,283.173z"/>
				<g>
					<polygon points="221.093,277.172 211.38,282.795 222.603,282.783 					"/>
				</g>
			</g>
		</g>
	</g>
	<g>
		<g>
			<g>
				<path d="M244.812,283.19c-4.029,0.902-7.902,2.408-11.552,4.309c-3.652,1.904-7.085,4.208-10.286,6.786l-1.012-1.304
					c3.38-2.51,6.981-4.725,10.783-6.52c3.8-1.792,7.806-3.17,11.936-3.925L244.812,283.19z"/>
				<g>
					<polygon points="222.102,290.19 215.816,299.488 225.909,294.579 					"/>
				</g>
			</g>
		</g>
	</g>
	<g>
		<g>
			<g>
				<path d="M245.018,283.057c-4.63,6.734-8.77,13.789-12.392,21.089l-1.46-0.761c3.947-7.217,8.396-14.148,13.31-20.717
					L245.018,283.057z"/>
				<g>
					<polygon points="230.195,300.718 228.005,311.726 235.406,303.289 					"/>
				</g>
			</g>
		</g>
	</g>
	<g>
		<circle class="st46" cx="244.747" cy="282.863" r="12"/>
		<g>
			<circle class="st7" cx="244.747" cy="280.163" r="3.2"/>
			<path class="st7" d="M247.39,283.29c-0.121-0.053-0.259-0.036-0.372,0.033c-0.664,0.405-1.437,0.64-2.271,0.64
				c-0.833,0-1.606-0.235-2.269-0.639c-0.112-0.068-0.251-0.085-0.371-0.033c-1.304,0.572-2.159,1.553-2.159,2.672v1.6
				c0,0.663,2.149,1.2,4.8,1.2s4.8-0.537,4.8-1.2v-1.6C249.547,284.844,248.694,283.861,247.39,283.29z"/>
		</g>
	</g>
	<g>
		<g>
			<g>
				<path d="M276.356,315.066c-4.029,0.902-7.902,2.408-11.552,4.309c-3.652,1.904-7.085,4.208-10.286,6.786l-1.012-1.304
					c3.38-2.51,6.981-4.725,10.784-6.52c3.8-1.792,7.806-3.17,11.936-3.925L276.356,315.066z"/>
				<g>
					<polygon points="253.646,322.065 247.36,331.363 257.453,326.454 					"/>
				</g>
			</g>
		</g>
	</g>
	<g>
		<g>
			<g>
				<path d="M276.562,314.933c-4.63,6.734-8.77,13.789-12.392,21.089l-1.46-0.761c3.947-7.217,8.396-14.148,13.31-20.717
					L276.562,314.933z"/>
				<g>
					<polygon points="261.739,332.594 259.548,343.602 266.95,335.165 					"/>
				</g>
			</g>
		</g>
	</g>
	<g>
		<g>
			<g>
				<polygon points="276.624,314.74 277.064,339.248 275.418,339.245 275.958,314.738 				"/>
				<g>
					<polygon points="273.34,337.259 276.223,348.106 279.15,337.271 					"/>
				</g>
			</g>
		</g>
	</g>
	<g>
		<circle class="st46" cx="276.291" cy="314.739" r="12"/>
		<g>
			<circle class="st7" cx="276.291" cy="312.039" r="3.2"/>
			<path class="st7" d="M278.934,315.166c-0.121-0.053-0.259-0.036-0.372,0.033c-0.664,0.405-1.437,0.64-2.271,0.64
				c-0.833,0-1.606-0.235-2.269-0.639c-0.112-0.068-0.251-0.085-0.371-0.033c-1.304,0.572-2.159,1.553-2.159,2.672v1.6
				c0,0.663,2.149,1.2,4.8,1.2s4.8-0.537,4.8-1.2v-1.6C281.091,316.72,280.238,315.737,278.934,315.166z"/>
		</g>
	</g>
	<g>
		<g>
			<g>
				<path d="M320.271,326.888c-4.63,6.734-8.77,13.789-12.392,21.089l-1.46-0.761c3.947-7.217,8.396-14.148,13.31-20.717
					L320.271,326.888z"/>
				<g>
					<polygon points="305.448,344.549 303.258,355.556 310.659,347.119 					"/>
				</g>
			</g>
		</g>
	</g>
	<g>
		<g>
			<g>
				<polygon points="320.333,326.694 320.773,351.203 319.127,351.2 319.667,326.693 				"/>
				<g>
					<polygon points="317.049,349.214 319.932,360.061 322.859,349.226 					"/>
				</g>
			</g>
		</g>
	</g>
	<g>
		<g>
			<g>
				<path d="M320.272,326.501c4.876,6.596,9.296,13.543,13.218,20.773l-1.463,0.756c-3.597-7.312-7.707-14.384-12.299-21.143
					L320.272,326.501z"/>
				<g>
					<polygon points="329.25,347.164 336.625,355.624 334.469,344.61 					"/>
				</g>
			</g>
		</g>
	</g>
	<g>
		<circle class="st46" cx="320" cy="326.694" r="12"/>
		<g>
			<circle class="st7" cx="320" cy="323.994" r="3.2"/>
			<path class="st7" d="M322.643,327.12c-0.121-0.053-0.259-0.036-0.372,0.033c-0.664,0.405-1.437,0.64-2.271,0.64
				c-0.833,0-1.606-0.235-2.269-0.639c-0.112-0.068-0.251-0.085-0.371-0.033c-1.304,0.572-2.159,1.553-2.159,2.672v1.6
				c0,0.663,2.149,1.2,4.8,1.2s4.8-0.537,4.8-1.2v-1.6C324.8,328.675,323.947,327.692,322.643,327.12z"/>
		</g>
	</g>
	<g>
		<g>
			<g>
				<polygon points="363.257,315.193 363.697,339.702 362.051,339.698 362.591,315.192 				"/>
				<g>
					<polygon points="359.973,337.713 362.856,348.559 365.783,337.724 					"/>
				</g>
			</g>
		</g>
	</g>
	<g>
		<g>
			<g>
				<path d="M363.196,314.999c4.876,6.596,9.296,13.543,13.218,20.773l-1.463,0.756c-3.597-7.312-7.707-14.384-12.299-21.143
					L363.196,314.999z"/>
				<g>
					<polygon points="372.174,335.662 379.548,344.123 377.393,333.109 					"/>
				</g>
			</g>
		</g>
	</g>
	<g>
		<g>
			<g>
				<path d="M362.991,314.866c4.125,0.777,8.123,2.174,11.915,3.982c3.794,1.812,7.385,4.04,10.756,6.561l-1.016,1.3
					c-3.192-2.589-6.615-4.906-10.259-6.826c-3.641-1.917-7.506-3.441-11.53-4.365L362.991,314.866z"/>
				<g>
					<polygon points="381.709,326.994 391.787,331.935 385.531,322.617 					"/>
				</g>
			</g>
		</g>
	</g>
	<g>
		<circle class="st46" cx="362.924" cy="315.192" r="12"/>
		<g>
			<circle class="st7" cx="362.924" cy="312.492" r="3.2"/>
			<path class="st7" d="M365.567,315.619c-0.121-0.053-0.259-0.036-0.372,0.033c-0.664,0.405-1.437,0.64-2.271,0.64
				c-0.833,0-1.606-0.235-2.269-0.639c-0.112-0.068-0.251-0.085-0.371-0.033c-1.304,0.572-2.159,1.553-2.159,2.672v1.6
				c0,0.663,2.149,1.2,4.8,1.2c2.651,0,4.8-0.537,4.8-1.2v-1.6C367.724,317.173,366.871,316.191,365.567,315.619z"/>
		</g>
	</g>
	<g>
		<g>
			<g>
				<path d="M395.072,283.456c4.876,6.596,9.296,13.543,13.218,20.773l-1.463,0.756c-3.597-7.312-7.707-14.384-12.299-21.143
					L395.072,283.456z"/>
				<g>
					<polygon points="404.05,304.119 411.424,312.579 409.269,301.565 					"/>
				</g>
			</g>
		</g>
	</g>
	<g>
		<g>
			<g>
				<path d="M394.867,283.322c4.125,0.777,8.123,2.174,11.915,3.982c3.794,1.812,7.385,4.04,10.756,6.561l-1.016,1.3
					c-3.192-2.589-6.615-4.906-10.259-6.826c-3.641-1.917-7.506-3.441-11.53-4.365L394.867,283.322z"/>
				<g>
					<polygon points="413.585,295.45 423.662,300.391 417.406,291.073 					"/>
				</g>
			</g>
		</g>
	</g>
	<g>
		<g>
			<g>
				<path d="M394.677,283.338c7.84-3.277,16.653-4.308,25.126-2.893l-0.301,1.626c-8.109-1.683-16.733-1.039-24.581,1.887
					L394.677,283.338z"/>
				<g>
					<polygon points="416.943,283.659 428.167,283.716 418.476,278.055 					"/>
				</g>
			</g>
		</g>
	</g>
	<g>
		<circle class="st46" cx="394.8" cy="283.648" r="12"/>
		<g>
			<circle class="st7" cx="394.8" cy="280.948" r="3.2"/>
			<path class="st7" d="M397.443,284.075c-0.121-0.053-0.259-0.036-0.372,0.033c-0.664,0.405-1.437,0.64-2.271,0.64
				c-0.833,0-1.606-0.235-2.269-0.639c-0.112-0.068-0.251-0.085-0.371-0.033c-1.304,0.572-2.159,1.553-2.159,2.672v1.6
				c0,0.663,2.149,1.2,4.8,1.2c2.651,0,4.8-0.537,4.8-1.2v-1.6C399.6,285.629,398.747,284.647,397.443,284.075z"/>
		</g>
	</g>
	<g>
		<g>
			<g>
				<path d="M406.7,240.066c4.125,0.777,8.123,2.174,11.915,3.982c3.794,1.812,7.385,4.04,10.756,6.561l-1.016,1.3
					c-3.192-2.589-6.615-4.906-10.259-6.826c-3.641-1.917-7.506-3.441-11.53-4.365L406.7,240.066z"/>
				<g>
					<polygon points="425.418,252.194 435.496,257.135 429.24,247.817 					"/>
				</g>
			</g>
		</g>
	</g>
	<g>
		<g>
			<g>
				<path d="M406.511,240.083c7.84-3.277,16.653-4.308,25.126-2.893l-0.301,1.626c-8.109-1.683-16.733-1.039-24.581,1.887
					L406.511,240.083z"/>
				<g>
					<polygon points="428.777,240.404 440,240.461 430.309,234.799 					"/>
				</g>
			</g>
		</g>
	</g>
	<g>
		<g>
			<g>
				<path d="M406.398,240.156c5.816-5.981,12.639-11.115,20.382-14.532l0.633,1.524c-7.628,3.01-14.552,7.782-20.545,13.481
					L406.398,240.156z"/>
				<g>
					<polygon points="426.144,229.871 435.564,223.768 424.355,224.343 					"/>
				</g>
			</g>
		</g>
	</g>
	<g>
		<g>
			<g>
				<path d="M406.398,240.156c5.816-5.981,12.639-11.115,20.382-14.532l0.633,1.524c-7.628,3.01-14.552,7.782-20.545,13.481
					L406.398,240.156z"/>
				<g>
					<polygon points="426.144,229.871 435.564,223.768 424.355,224.343 					"/>
				</g>
			</g>
		</g>
	</g>
	<g>
		<circle class="st46" cx="406.633" cy="240.393" r="12"/>
		<g>
			<circle class="st7" cx="406.633" cy="237.693" r="3.2"/>
			<path class="st7" d="M409.276,240.819c-0.121-0.053-0.259-0.036-0.372,0.033c-0.664,0.405-1.437,0.64-2.271,0.64
				c-0.833,0-1.606-0.235-2.269-0.639c-0.112-0.068-0.251-0.085-0.371-0.033c-1.304,0.572-2.159,1.553-2.159,2.672v1.6
				c0,0.663,2.149,1.2,4.8,1.2s4.8-0.537,4.8-1.2v-1.6C411.433,242.374,410.58,241.391,409.276,240.819z"/>
		</g>
	</g>
	<g>
		<g>
			<g>
				<path d="M395.131,196.705c7.84-3.277,16.653-4.308,25.126-2.893l-0.301,1.626c-8.109-1.683-16.733-1.039-24.581,1.887
					L395.131,196.705z"/>
				<g>
					<polygon points="417.397,197.026 428.62,197.083 418.929,191.422 					"/>
				</g>
			</g>
		</g>
	</g>
	<g>
		<g>
			<g>
				<path d="M395.018,196.779c5.816-5.981,12.639-11.115,20.382-14.532l0.633,1.524c-7.628,3.01-14.552,7.782-20.545,13.481
					L395.018,196.779z"/>
				<g>
					<polygon points="414.765,186.493 424.184,180.391 412.975,180.965 					"/>
				</g>
			</g>
		</g>
	</g>
	<g>
		<g>
			<g>
				<path d="M395.018,196.779c5.816-5.981,12.639-11.115,20.382-14.532l0.633,1.524c-7.628,3.01-14.552,7.782-20.545,13.481
					L395.018,196.779z"/>
				<g>
					<polygon points="414.765,186.493 424.184,180.391 412.975,180.965 					"/>
				</g>
			</g>
		</g>
	</g>
	<g>
		<g>
			<g>
				<path d="M394.95,196.877c3.267-7.525,7.068-14.831,11.375-21.841l1.385,0.89c-4.539,6.768-8.602,13.868-12.154,21.228
					L394.95,196.877z"/>
				<g>
					<polygon points="408.378,178.777 411.995,168.153 403.55,175.544 					"/>
				</g>
			</g>
		</g>
	</g>
	<g>
		<circle class="st47" cx="395.253" cy="197.015" r="13.119"/>
		<g>
			<circle class="st7" cx="395.253" cy="194.064" r="3.499"/>
			<path class="st7" d="M398.142,197.482c-0.132-0.058-0.283-0.039-0.406,0.036c-0.726,0.443-1.571,0.7-2.483,0.7
				c-0.91,0-1.756-0.257-2.481-0.699c-0.123-0.075-0.274-0.093-0.406-0.036c-1.426,0.625-2.361,1.698-2.361,2.921v1.749
				c0,0.725,2.35,1.312,5.248,1.312s5.248-0.587,5.248-1.312v-1.749C400.501,199.181,399.568,198.107,398.142,197.482z"/>
		</g>
	</g>
	<g>
		<g>
			<g>
				<polygon points="363.376,165.139 362.936,140.63 364.582,140.634 364.042,165.14 				"/>
				<g>
					<polygon points="366.66,142.619 363.777,131.773 360.85,142.607 					"/>
				</g>
			</g>
		</g>
	</g>
	<g>
		<g>
			<g>
				<path d="M363.474,164.903c5.817-5.981,12.639-11.115,20.382-14.532l0.633,1.524c-7.628,3.01-14.552,7.782-20.545,13.481
					L363.474,164.903z"/>
				<g>
					<polygon points="383.221,154.618 392.64,148.515 381.431,149.089 					"/>
				</g>
			</g>
		</g>
	</g>
	<g>
		<g>
			<g>
				<path d="M363.474,164.903c5.817-5.981,12.639-11.115,20.382-14.532l0.633,1.524c-7.628,3.01-14.552,7.782-20.545,13.481
					L363.474,164.903z"/>
				<g>
					<polygon points="383.221,154.618 392.64,148.515 381.431,149.089 					"/>
				</g>
			</g>
		</g>
	</g>
	<g>
		<g>
			<g>
				<path d="M363.406,165.001c3.267-7.525,7.068-14.831,11.374-21.841l1.385,0.89c-4.539,6.768-8.602,13.868-12.154,21.228
					L363.406,165.001z"/>
				<g>
					<polygon points="376.834,146.901 380.452,136.277 372.006,143.668 					"/>
				</g>
			</g>
		</g>
	</g>
	<g>
		<circle class="st46" cx="363.709" cy="165.14" r="12"/>
		<g>
			<circle class="st7" cx="363.709" cy="162.44" r="3.2"/>
			<path class="st7" d="M366.352,165.566c-0.121-0.053-0.259-0.036-0.372,0.033c-0.664,0.405-1.437,0.64-2.271,0.64
				c-0.833,0-1.606-0.235-2.269-0.639c-0.112-0.068-0.251-0.085-0.371-0.033c-1.304,0.572-2.159,1.553-2.159,2.672v1.6
				c0,0.663,2.149,1.2,4.8,1.2s4.8-0.537,4.8-1.2v-1.6C368.509,167.121,367.656,166.138,366.352,165.566z"/>
		</g>
	</g>
	<g>
		<g>
			<g>
				<polygon points="320.12,153.306 319.681,128.797 321.327,128.8 320.787,153.307 				"/>
				<g>
					<polygon points="323.405,130.786 320.521,119.939 317.594,130.774 					"/>
				</g>
			</g>
		</g>
	</g>
	<g>
		<g>
			<g>
				<path d="M320.15,153.444c-3.529-7.37-7.568-14.484-12.075-21.273l1.389-0.883c4.273,7.029,8.048,14.347,11.293,21.881
					L320.15,153.444z"/>
				<g>
					<polygon points="312.237,131.809 303.829,124.376 307.393,135.018 					"/>
				</g>
			</g>
		</g>
	</g>
	<g>
		<g>
			<g>
				<path d="M320.15,153.168c3.267-7.525,7.068-14.831,11.375-21.841l1.385,0.89c-4.539,6.768-8.602,13.868-12.154,21.228
					L320.15,153.168z"/>
				<g>
					<polygon points="333.578,135.068 337.196,124.444 328.75,131.835 					"/>
				</g>
			</g>
		</g>
	</g>
	<g>
		<circle class="st46" cx="320.453" cy="153.306" r="12"/>
		<g>
			<circle class="st7" cx="320.453" cy="150.606" r="3.2"/>
			<path class="st7" d="M323.096,153.733c-0.121-0.053-0.259-0.036-0.372,0.033c-0.664,0.405-1.437,0.64-2.271,0.64
				c-0.833,0-1.606-0.235-2.269-0.639c-0.112-0.068-0.251-0.085-0.371-0.033c-1.304,0.572-2.159,1.553-2.159,2.672v1.6
				c0,0.663,2.149,1.2,4.8,1.2c2.651,0,4.8-0.537,4.8-1.2v-1.6C325.253,155.287,324.401,154.305,323.096,153.733z"/>
		</g>
	</g>
	<g>
		<g>
			<g>
				<polygon points="276.743,164.686 276.303,140.177 277.949,140.18 277.409,164.687 				"/>
				<g>
					<polygon points="280.027,142.166 277.144,131.319 274.217,142.154 					"/>
				</g>
			</g>
		</g>
	</g>
	<g>
		<g>
			<g>
				<path d="M276.773,164.824c-3.529-7.37-7.568-14.484-12.075-21.273l1.389-0.883c4.273,7.029,8.048,14.347,11.293,21.881
					L276.773,164.824z"/>
				<g>
					<polygon points="268.86,143.189 260.452,135.756 264.016,146.398 					"/>
				</g>
			</g>
		</g>
	</g>
	<g>
		<g>
			<g>
				<path d="M276.841,164.922c-5.976-5.715-12.881-10.511-20.494-13.557l0.64-1.521c7.725,3.453,14.526,8.609,20.325,14.606
					L276.841,164.922z"/>
				<g>
					<polygon points="259.419,148.575 248.213,147.944 257.602,154.094 					"/>
				</g>
			</g>
		</g>
	</g>
	<g>
		<circle class="st46" cx="277.076" cy="164.686" r="12"/>
		<g>
			<circle class="st7" cx="277.076" cy="161.986" r="3.2"/>
			<path class="st7" d="M279.719,165.113c-0.121-0.053-0.259-0.036-0.372,0.033c-0.664,0.405-1.437,0.64-2.271,0.64
				c-0.833,0-1.606-0.235-2.269-0.639c-0.112-0.068-0.251-0.085-0.371-0.033c-1.304,0.572-2.159,1.553-2.159,2.672v1.6
				c0,0.663,2.149,1.2,4.8,1.2c2.651,0,4.8-0.537,4.8-1.2v-1.6C281.876,166.667,281.023,165.685,279.719,165.113z"/>
		</g>
	</g>
	<g>
		<g>
			<g>
				<path d="M244.897,196.368c-3.53-7.37-7.568-14.484-12.075-21.273l1.389-0.883c4.273,7.029,8.048,14.347,11.293,21.881
					L244.897,196.368z"/>
				<g>
					<polygon points="236.984,174.733 228.576,167.299 232.14,177.942 					"/>
				</g>
			</g>
		</g>
	</g>
	<g>
		<g>
			<g>
				<path d="M244.965,196.466c-5.976-5.715-12.881-10.511-20.494-13.557l0.64-1.521c7.726,3.453,14.526,8.609,20.325,14.606
					L244.965,196.466z"/>
				<g>
					<polygon points="227.543,180.118 216.338,179.488 225.726,185.638 					"/>
				</g>
			</g>
		</g>
	</g>
	<g>
		<g>
			<g>
				<path d="M245.077,196.54c-7.837-2.954-16.457-3.637-24.573-1.988l-0.294-1.627c8.48-1.38,17.286-0.309,25.114,2.996
					L245.077,196.54z"/>
				<g>
					<polygon points="221.546,190.539 211.833,196.162 223.057,196.15 					"/>
				</g>
			</g>
		</g>
	</g>
	<g>
		<circle class="st46" cx="245.2" cy="196.23" r="12"/>
		<g>
			<circle class="st7" cx="245.2" cy="193.53" r="3.2"/>
			<path class="st7" d="M247.843,196.657c-0.121-0.053-0.259-0.036-0.372,0.033c-0.664,0.405-1.437,0.64-2.271,0.64
				c-0.833,0-1.606-0.235-2.269-0.639c-0.112-0.068-0.251-0.085-0.371-0.033c-1.304,0.572-2.159,1.553-2.159,2.672v1.6
				c0,0.663,2.149,1.2,4.8,1.2s4.8-0.537,4.8-1.2v-1.6C250,198.211,249.148,197.229,247.843,196.657z"/>
		</g>
	</g>
	<g>
		<g>
			<g>
				<path d="M233.132,239.722c-5.976-5.715-12.881-10.511-20.494-13.557l0.64-1.521c7.726,3.453,14.526,8.609,20.325,14.606
					L233.132,239.722z"/>
				<g>
					<polygon points="215.71,223.374 204.504,222.743 213.893,228.893 					"/>
				</g>
			</g>
		</g>
	</g>
	<g>
		<g>
			<g>
				<path d="M233.244,239.796c-7.837-2.954-16.457-3.637-24.573-1.988l-0.295-1.627c8.48-1.38,17.286-0.309,25.114,2.996
					L233.244,239.796z"/>
				<g>
					<polygon points="209.713,233.795 200,239.418 211.223,239.405 					"/>
				</g>
			</g>
		</g>
	</g>
	<g>
		<g>
			<g>
				<path d="M233.433,239.813c-4.029,0.902-7.902,2.408-11.552,4.309c-3.652,1.904-7.085,4.208-10.286,6.786l-1.012-1.304
					c3.38-2.51,6.981-4.725,10.783-6.52c3.8-1.792,7.806-3.17,11.936-3.925L233.433,239.813z"/>
				<g>
					<polygon points="210.722,246.812 204.436,256.111 214.529,251.202 					"/>
				</g>
			</g>
		</g>
	</g>
	<g>
		<circle class="st46" cx="233.367" cy="239.486" r="12"/>
		<g>
			<circle class="st7" cx="233.367" cy="236.786" r="3.2"/>
			<path class="st7" d="M236.01,239.913c-0.121-0.053-0.259-0.036-0.372,0.033c-0.664,0.405-1.437,0.64-2.271,0.64
				c-0.833,0-1.606-0.235-2.269-0.639c-0.112-0.068-0.251-0.085-0.371-0.033c-1.304,0.572-2.159,1.553-2.159,2.672v1.6
				c0,0.663,2.149,1.2,4.8,1.2s4.8-0.537,4.8-1.2v-1.6C238.167,241.467,237.314,240.484,236.01,239.913z"/>
		</g>
	</g>
</g>
<g>
	<g>
		<defs>
			<rect id="SVGID_32_" x="-720" y="-660" width="1800" height="600"/>
		</defs>
		<clipPath id="SVGID_2_">
			<use xlink:href="#SVGID_32_"  style="overflow:visible;"/>
		</clipPath>
		<g style="clip-path:url(#SVGID_2_);">
			
				<image style="overflow:visible;" width="7952" height="4234" xlink:href="../../../../../../Downloads/AdobeStock_239394342.jpeg"  transform="matrix(0.2264 0 0 0.2264 -720 -824.2002)">
			</image>
		</g>
	</g>
</g>
</svg>
